<svg id="Layer_1" data-name="Layer 1" xmlns="http://www.w3.org/2000/svg" viewBox="0 0 736.4268 296.3669">
  <g>
    <path id="fullLogo" d="M229.97,236.3669a20.9455,20.9455,0,0,1-7.5273-1.2747,15.7159,15.7159,0,0,1-9.33-9.2693,19.963,19.963,0,0,1-1.2525-7.2253,19.7589,19.7589,0,0,1,2.0948-9.1993,15.4563,15.4563,0,0,1,6.0111-6.3607,18.158,18.158,0,0,1,9.3773-2.3078,25.0516,25.0516,0,0,1,3.2837.2162,29.52,29.52,0,0,1,3.112.5785,24.9772,24.9772,0,0,1,2.7782.83,18.7772,18.7772,0,0,1,2.2982.9981l-.6008,7.3556a23.6869,23.6869,0,0,0-3.6078-1.885,18.5078,18.5078,0,0,0-3.3314-1.0362,15.3023,15.3023,0,0,0-3.042-.3243,10.4594,10.4594,0,0,0-5.22,1.2874,9.0555,9.0555,0,0,0-3.5951,3.7764,12.9252,12.9252,0,0,0-1.31,6.0714,13.6567,13.6567,0,0,0,.6739,4.3168,10.4041,10.4041,0,0,0,2.0312,3.5951A9.3712,9.3712,0,0,0,226.22,228.96a11.8751,11.8751,0,0,0,4.784.89,16.6523,16.6523,0,0,0,2.2728-.1557,15.8415,15.8415,0,0,0,2.2951-.4928,13.3714,13.3714,0,0,0,2.3109-.925,17.489,17.489,0,0,0,2.3078-1.43l.4323,7.26a14.246,14.246,0,0,1-2.2855,1.0108,19.9211,19.9211,0,0,1-2.632.7089,27.127,27.127,0,0,1-2.8386.41Q231.4119,236.3654,229.97,236.3669Z" style="fill: #fff"/>
    <path id="fullLogo-2" data-name="fullLogo" d="M299.6027,236.3669a20.5731,20.5731,0,0,1-8.0327-1.43,15.1123,15.1123,0,0,1-5.5787-3.9194,16.3693,16.3693,0,0,1-3.2582-5.6868,21.1206,21.1206,0,0,1-1.0713-6.7326,20.3055,20.3055,0,0,1,1.9836-9.0531,15.2319,15.2319,0,0,1,5.9157-6.4338,18.6914,18.6914,0,0,1,9.8255-2.3809,20.3327,20.3327,0,0,1,7.8134,1.3828,15.2623,15.2623,0,0,1,5.5692,3.8367,16.1577,16.1577,0,0,1,3.3281,5.6741,21.192,21.192,0,0,1,1.1062,6.9265,19.9576,19.9576,0,0,1-2.0312,9.1358,15.2677,15.2677,0,0,1-5.9506,6.348A18.4862,18.4862,0,0,1,299.6027,236.3669Zm-.1207-6.5165a9.0666,9.0666,0,0,0,4.1609-.9028,8.3,8.3,0,0,0,2.9563-2.4889,11.2228,11.2228,0,0,0,1.7674-3.6174,15.2835,15.2835,0,0,0,.5912-4.2914,14.868,14.868,0,0,0-.6389-4.4375,11.0685,11.0685,0,0,0-1.85-3.5952,8.5948,8.5948,0,0,0-2.9722-2.4063,8.9814,8.9814,0,0,0-4.0147-.8646,9.1279,9.1279,0,0,0-4.1229.89,8.4469,8.4469,0,0,0-2.9944,2.4636,11.4232,11.4232,0,0,0-1.8278,3.6206,14.7457,14.7457,0,0,0-.6262,4.3294,15.1682,15.1682,0,0,0,.6008,4.3168,11.14,11.14,0,0,0,1.7928,3.6047,8.4141,8.4141,0,0,0,2.9817,2.4762A9.19,9.19,0,0,0,299.482,229.85Z" style="fill: #fff"/>
    <path id="fullLogo-3" data-name="fullLogo" d="M360.9719,235.7184V201.426h7.9119v33.0177l-2.7432-5.6264h17.9409v6.9011Z" style="fill: #fff"/>
    <path id="fullLogo-4" data-name="fullLogo" d="M434.0659,235.7184V201.426h7.9119v33.0177l-2.7432-5.6264h17.9409v6.9011Z" style="fill: #fff"/>
    <path id="fullLogo-5" data-name="fullLogo" d="M507.22,235.7184V201.426h22.7726v6.4687H511.1874l3.7763-5.2163v31.7907l-3.2709-5.22h18.5163v6.4688Zm5.9411-14.2853V215.422h16.0622v6.0111H513.1614Z" style="fill: #fff"/>
    <path id="fullLogo-6" data-name="fullLogo" d="M595.0907,236.3192a21.9486,21.9486,0,0,1-7.861-1.31,16.1772,16.1772,0,0,1-5.8076-3.6905,15.95,15.95,0,0,1-3.6079-5.63,19.781,19.781,0,0,1-1.24-7.1172,19.3865,19.3865,0,0,1,2.152-9.2693,15.5106,15.5106,0,0,1,6.17-6.3,19.2614,19.2614,0,0,1,9.6411-2.2728,26.696,26.696,0,0,1,3.5253.2289,31.783,31.783,0,0,1,3.2582.6008,28.3657,28.3657,0,0,1,2.8609.8424,20.6323,20.6323,0,0,1,2.3332.9727l-.6008,7.3333a28.5661,28.5661,0,0,0-3.91-1.8754,21.2038,21.2038,0,0,0-3.6047-1.0458,17.5114,17.5114,0,0,0-3.2359-.3243,11.6215,11.6215,0,0,0-4.1006.7089,9.1985,9.1985,0,0,0-3.3059,2.13,9.6381,9.6381,0,0,0-2.2,3.5,13.5748,13.5748,0,0,0-.782,4.7967,14.3321,14.3321,0,0,0,.6612,4.3994,10.3952,10.3952,0,0,0,2.0089,3.6429,9.1316,9.1316,0,0,0,3.4267,2.4667,12.4014,12.4014,0,0,0,4.8921.89,26.887,26.887,0,0,0,2.8387-.1462,18.7438,18.7438,0,0,0,2.597-.4577,19.99,19.99,0,0,0,4.9048-1.9232l.9378,7.0473a16.0014,16.0014,0,0,1-2.1044.6612c-.8582.2162-1.8182.4132-2.8863.5881-1.0649.178-2.19.3115-3.3758.41C597.4875,236.2715,596.2955,236.3192,595.0907,236.3192Zm4.5234-1.6593V217.9714h7.4288v16.5454Z" style="fill: #fff"/>
    <path id="fullLogo-7" data-name="fullLogo" d="M653.4083,235.7184V201.426h22.7726v6.4687H657.3754l3.7763-5.2163v31.7907l-3.2709-5.22h18.5163v6.4688Zm5.9411-14.2853V215.422h16.0622v6.0111H659.3494Z" style="fill: #fff"/>
    <path id="fullLogo-8" data-name="fullLogo" d="M60,173.9376v-5.6212l3.4462-1.206c3.6774-1.1466,7.4058-4.0225,7.5177-8.6171.0041-.1693.0013-82.9791,0-83.0459-.0907-4.7107-3.784-7.6423-7.3458-8.792L60,65.6212V60h47.332q18.1,0,31.2,6.7237A47.3005,47.3005,0,0,1,158.7,86.1169q7.0628,12.6678,7.0643,30.5941,0,18.2732-7.6705,31.0254a49.8644,49.8644,0,0,1-21.5458,19.4775q-13.8771,6.7252-32.3189,6.7237Zm35.956-4.999h8.7921q12.2367,0,19.9087-4.8272,7.6672-4.8225,11.2885-16.2875,3.6226-11.4634,3.6211-30.941,0-19.4775-3.6211-30.8535-3.6182-11.3743-11.1167-16.2032-7.4985-4.8225-19.3931-4.8272h-9.48q-.1734,11.8947-.1718,24.0455V144.55Q95.7842,156.8753,95.956,168.9386Z" style="fill: #fff"/>
    <path id="fullLogo-9" data-name="fullLogo" d="M201.4452,176.35a25.3328,25.3328,0,0,1-16.6343-5.6021q-6.81-5.5958-6.8081-16.1157,0-8.2717,8.0141-15.2533,8.0189-6.9831,25.2546-10.2574,2.929-.6843,6.8081-1.2935,3.8757-.6,7.67-1.29V114.299q0-11.7212-2.9307-16.2032-2.9338-4.48-9.3076-4.4835h-.5187a8.1869,8.1869,0,0,0-6.2894,2.5q-2.3292,2.5026-3.0182,8.189l-.5155,2.24q-.52,6.894-3.6212,10.0825a10.3673,10.3673,0,0,1-7.7547,3.19,10.027,10.027,0,0,1-7.1549-2.6714,9.1343,9.1343,0,0,1-2.8432-6.98,16.1515,16.1515,0,0,1,4.8272-11.8946,29.9952,29.9952,0,0,1,12.8413-7.2393,59.8093,59.8093,0,0,1,17.3217-2.4151q15.3391,0,23.4424,7.4142,8.0983,7.4142,8.1015,24.13v36.4395q0,7.4142,7.0674,7.4111h3.9649l1.7216,3.8965a23.6594,23.6594,0,0,1-6.8925,6.1207q-3.796,2.1512-10.3418,2.1527-7.4142,0-11.81-3.5337a16.5159,16.5159,0,0,1-5.7739-9.3919,66.2844,66.2844,0,0,1-10.8573,9.4794Q210.0609,176.35,201.4452,176.35Zm9.9981-11.0292a14.4576,14.4576,0,0,0,6.5488-1.5528,49.8288,49.8288,0,0,0,7.7579-5.1709V131.0177q-4.4852.689-9.1358,1.7247a23.9119,23.9119,0,0,0-11.9789,6.3769q-4.5694,4.6538-4.5679,12.5819,0,6.8988,3.1869,10.2575A10.7882,10.7882,0,0,0,211.4433,165.3205Z" style="fill: #fff"/>
    <path id="fullLogo-10" data-name="fullLogo" d="M301.9385,174.4563l-26.373-69.7082a10.9062,10.9062,0,0,0-2.8432-4.74c-1.2061-1.09-4.787-1.9809-6.74-2.6714l-2.9307-.8623V91.2h45.1953v5.2744l-2.7588.6905c-4.368,1.15-7.8021,3.9086-6.3086,8.2734l15.6876,44.8848,14.4785-36.44-2.587-7.7547a27.0518,27.0518,0,0,0-2.5-5.69,7.0263,7.0263,0,0,0-3.7056-2.9307l-2.9306-1.0341V91.2h35.5088v5.2744l-2.412.8623q-2.76,1.0357-3.3619,2.8432-.6046,1.8138.603,5.2584l15.3408,43.8506L378.8145,105.61c1.381-4.48-1.6532-7.18-5.1025-8.1016l-3.4463-1.0341V91.2h26.0956v5.2744l-3.79,1.0341c-1.9558.5781-4.4493,1.44-5.4835,2.587a13.5365,13.5365,0,0,0-2.5839,4.8241l-24.82,69.5364H350.72L331.93,119.47l-20.34,54.9864Z" style="fill: #fff"/>
    <path id="fullLogo-11" data-name="fullLogo" d="M433.629,176.35a56.6873,56.6873,0,0,1-14.91-1.8091,58.861,58.861,0,0,1-12.67-5.0834v-20.34h4.6522l5.1709,9.8231a26.5113,26.5113,0,0,0,7.4986,9.4825,17.7215,17.7215,0,0,0,10.7729,3.1026q8.1032,0,12.9288-3.5337a11.2469,11.2469,0,0,0,4.8272-9.5669,11.8259,11.8259,0,0,0-3.6212-8.964q-3.618-3.4446-12.9287-6.3769l-7.583-2.4151q-10.1745-3.1026-16.1156-9.392a22.056,22.056,0,0,1-5.9489-15.772,24.3761,24.3761,0,0,1,3.9649-13.5318,27.3792,27.3792,0,0,1,11.5509-9.7387q7.5829-3.6181,18.4433-3.6212a48.8473,48.8473,0,0,1,13.0132,1.64,60.531,60.531,0,0,1,11.6353,4.5679l-1.0342,18.4433H458.793l-5.3428-9.8262q-2.76-5.5161-5.602-7.67-2.8447-2.1511-8.7046-2.1559a19.152,19.152,0,0,0-10.9448,3.19,10.1151,10.1151,0,0,0-4.74,8.8765,10.8657,10.8657,0,0,0,3.9649,8.7046q3.96,3.36,12.7538,6.2925l7.4111,2.24q12.5835,3.97,17.9278,10.5136a24.0468,24.0468,0,0,1,5.3427,15.6877,23.7125,23.7125,0,0,1-9.7388,19.7368Q451.3819,176.3481,433.629,176.35Z" style="fill: #fff"/>
    <path id="fullLogo-12" data-name="fullLogo" d="M527.0549,176.35q-12.7569,0-22.3238-5.3428a36.9246,36.9246,0,0,1-14.8222-15.169q-5.2584-9.823-5.2584-23.4424,0-13.6145,5.6021-23.4423a38.673,38.673,0,0,1,15.169-15.0815,47.1232,47.1232,0,0,1,43.2636,0,38.8077,38.8077,0,0,1,15.1689,14.9971q5.6005,9.7388,5.6021,23.5267,0,13.6194-5.2552,23.53a36.48,36.48,0,0,1-14.7379,15.169Q539.9822,176.3482,527.0549,176.35Zm0-4.8241a14.8429,14.8429,0,0,0,10.0825-3.3619q3.88-3.36,5.602-11.8071,1.72-8.4453,1.7247-23.6142,0-15.3393-1.7247-23.8736t-5.602-11.8946a14.8429,14.8429,0,0,0-10.0825-3.3619q-6.2051,0-9.9981,3.3619-3.7914,3.36-5.602,11.8946-1.809,8.53-1.809,23.8736,0,15.17,1.809,23.6142,1.809,8.4453,5.602,11.8071Q520.8484,171.524,527.0549,171.5256Z" style="fill: #fff"/>
    <path id="fullLogo-13" data-name="fullLogo" d="M580.5568,173.9376v-5.2744l2.7557-.69c3.7931-1.1466,7.69-3.9648,7.69-8.4452v-48.85a13.8234,13.8234,0,0,0-1.206-5.602q-1.0358-1.9778-4.4836-2.6714l-2.7557-.6905V98.6114L610.48,88.6133,612.548,90.51l1.206,10.6886A56.1361,56.1361,0,0,1,627.63,92.147a35.9051,35.9051,0,0,1,15.0815-3.5337q11.379,0,17.4966,6.2082,6.1161,6.2051,6.1207,18.9589v45.9189c0,4.48,4.0684,7.2986,8.2051,8.4453l1.8934.5186v5.2744H632.7844v-5.2744l2.5838-.69c3.7931-1.2622,7.69-4.0773,7.69-8.4452V110.3341q0-6.0317-2.587-8.792-2.5824-2.7558-8.6171-2.7589-8.45,0-17.5811,7.4142v53.5019c0,4.48,4.009,7.2986,8.0333,8.4453l1.7215.5186v5.2744Z" style="fill: #fff"/>
    <rect id="fullLogo-14" data-name="fullLogo" x="60.1244" y="215.4138" width="105.6605" height="6.011" style="fill: #fff"/>
  </g>
</svg>
