<?xml version="1.0" encoding="utf-8"?>
<!-- Generator: Adobe Illustrator 16.0.0, SVG Export Plug-In . SVG Version: 6.00 Build 0)  -->
<!DOCTYPE svg PUBLIC "-//W3C//DTD SVG 1.1//EN" "http://www.w3.org/Graphics/SVG/1.1/DTD/svg11.dtd">
<svg version="1.1" id="Layer_1" xmlns="http://www.w3.org/2000/svg" xmlns:xlink="http://www.w3.org/1999/xlink" x="0px" y="0px"
	 width="48px" height="48px" viewBox="0 0 48 48" enable-background="new 0 0 48 48" xml:space="preserve">
<g>
	<path fill="#c3c3c3" d="M38.229,15.18l2.843-6.899c0.616-0.034,1.111-0.536,1.111-1.161c0-0.647-0.526-1.174-1.174-1.174
		s-1.174,0.526-1.174,1.174c0,0.303,0.123,0.573,0.312,0.781l-2.545,6.18l-2.646-8.761c0.314-0.233,0.53-0.579,0.53-0.985
		c0-0.701-0.605-1.271-1.35-1.271c-0.745,0-1.351,0.57-1.351,1.271c0,0.653,0.531,1.174,1.204,1.246l2.856,9.461H11.092
		c-3.109,0-5.639,2.53-5.639,5.641v15.846c0,3.109,2.529,5.639,5.639,5.639h25.911c3.108,0,5.638-2.529,5.638-5.639V20.682
		C42.641,17.993,40.75,15.742,38.229,15.18z M41.641,36.527c0,2.558-2.08,4.639-4.638,4.639H11.092
		c-2.558,0-4.639-2.081-4.639-4.639V20.682c0-2.559,2.081-4.641,4.639-4.641h25.911c2.558,0,4.638,2.082,4.638,4.641V36.527z"/>
	<path fill="#c3c3c3" d="M32.979,19.104H15.123c-3.019,0-4.307,1.209-4.307,4.043v10.918c0,3.622,2.458,4.041,4.307,4.041h17.855
		c3.054,0,4.356-1.209,4.356-4.041V23.146C37.335,19.416,35.183,19.104,32.979,19.104z M36.335,34.064
		c0,2.273-0.847,3.041-3.356,3.041H15.123c-1.984,0-3.307-0.518-3.307-3.041V23.146c0-2.275,0.834-3.043,3.307-3.043h17.855
		c2.321,0,3.356,0.439,3.356,3.043V34.064z"/>
	<path fill="#c3c3c3" d="M41.532,43.938H5.953c-0.276,0-0.5,0.224-0.5,0.5s0.224,0.5,0.5,0.5h35.579c0.276,0,0.5-0.224,0.5-0.5
		S41.809,43.938,41.532,43.938z"/>
</g>
</svg>
